<?xml version="1.0" encoding="utf-8"?>
<!-- Generator: Adobe Illustrator 21.1.0, SVG Export Plug-In . SVG Version: 6.00 Build 0)  -->
<svg version="1.1" id="Layer_1" xmlns="http://www.w3.org/2000/svg" xmlns:xlink="http://www.w3.org/1999/xlink" x="0px" y="0px"
	 viewBox="0 279 300 42" enable-background="new 0 279 300 42" xml:space="preserve">
<path fill="#F03F3E" d="M281.589,301.652c4.249,0,7.553-3.068,7.553-6.609c0-3.541-3.304-6.609-7.553-6.609h-7.553v13.218H281.589z
	 M300,320.063h-10.858l-8.025-10.622h-7.081v10.622h-9.205v-39.654h16.758c9.205,0,16.758,6.373,16.758,14.398
	c0,5.193-3.068,9.677-8.026,12.274L300,320.063z M215.736,280.409h33.517v8.025h-24.312v8.497h18.175v8.025h-18.175v7.317h24.312
	v8.026h-33.517L215.736,280.409L215.736,280.409z M158.851,280.409h2.36l28.088,23.132v-23.132h9.205v39.654h-2.596l-27.852-23.131
	v23.131h-9.205V280.409z M100.787,280.409h10.857l12.038,16.758l12.274-16.758h10.858l-18.411,25.491v14.162h-9.205v-14.162
	L100.787,280.409z M58.773,300c0,6.845,6.137,12.51,13.69,12.51s13.69-5.665,13.69-12.51c0-6.845-6.137-12.51-13.69-12.51
	S58.773,293.155,58.773,300 M72.463,320.771c-12.51,0-22.896-9.441-22.896-20.771s10.149-20.771,22.896-20.771
	c12.51,0,22.896,9.205,22.896,20.771C95.358,311.566,84.972,320.771,72.463,320.771 M22.895,296.223
	c2.596,0,4.485-1.888,4.485-4.013c0-2.124-2.125-4.013-4.485-4.013H9.206v8.025H22.895z M25.964,312.274
	c2.596,0,4.485-1.888,4.485-4.013c0-2.124-2.124-4.013-4.485-4.013H8.969v8.025H25.964z M39.654,308.261
	c0,6.609-6.137,11.802-13.691,11.802H0v-39.654h22.895c7.553,0,13.69,5.429,13.69,11.802c0,2.361-0.708,4.485-2.125,6.609
	C37.53,300.944,39.654,304.485,39.654,308.261"/>
</svg>
