<?xml version="1.0" encoding="utf-8"?>
<!-- Generator: Adobe Illustrator 21.1.0, SVG Export Plug-In . SVG Version: 6.00 Build 0)  -->
<svg version="1.1" id="Layer_1" xmlns="http://www.w3.org/2000/svg" xmlns:xlink="http://www.w3.org/1999/xlink" x="0px" y="0px"
	 viewBox="0 0 85 34" style="enable-background:new 0 0 85 34;" xml:space="preserve">
<g>
	<path d="M27.7,34c0-11.3,0-22.6,0-33.9c3.9,0,7.9,0,11.8,0c0,0.2,0,0.3,0,0.5c0,11,0,22,0,33c0,0.2,0,0.3,0,0.5
		C35.6,34,31.7,34,27.7,34z"/>
	<path d="M53.3,0.1c0,0.2,0,0.3,0,0.5c0,11,0,21.9,0,32.9c0,0.2,0,0.4,0,0.5c-3.9,0-7.8,0-11.8,0c0-11.3,0-22.6,0-33.9
		C45.5,0.1,49.4,0.1,53.3,0.1z"/>
	<path d="M55,34c0-0.1,0-0.2,0-0.4c0-6.8,0-13.6,0-20.4c0-0.1,0-0.2,0-0.3c4.1,0,8.2,0,12.3,0c0,0.1,0,0.2,0,0.3
		c0,6.8,0,13.6,0,20.4c0,0.1,0,0.2,0,0.4C63.2,34,59.1,34,55,34z"/>
	<path d="M0,12.8c0.1,0,0.3,0,0.4,0c3.8,0,7.7,0,11.5,0c0.1,0,0.2,0,0.4,0c0,7.1,0,14.1,0,21.1C8.2,34,4.1,34,0,34
		C0,26.9,0,19.9,0,12.8z"/>
	<path d="M13.1,34c0-2.1,0-4.1,0-6.2c4.2,0,8.4,0,12.6,0c0,0.1,0,0.2,0,0.3c0,1.9,0,3.7,0,5.6c0,0.1,0,0.2,0,0.3
		C21.5,34,17.3,34,13.1,34z"/>
	<path d="M67.9,34c0-2.1,0-4.1,0-6.2c4.2,0,8.4,0,12.6,0c0,0.1,0,0.2,0,0.3c0,1.9,0,3.8,0,5.6c0,0.1,0,0.2,0,0.3
		C76.3,34,72.1,34,67.9,34z"/>
	<path d="M67.9,12.9c4.2,0,8.4,0,12.6,0c0,2,0,4.1,0,6.1c-4.2,0-8.4,0-12.6,0C67.9,16.9,67.9,14.9,67.9,12.9z"/>
	<path d="M67.9,26.4c0-2.1,0-4.1,0-6.1c4.2,0,8.4,0,12.6,0c0,2,0,4.1,0,6.1C76.3,26.4,72.1,26.4,67.9,26.4z"/>
	<path d="M25.7,12.9c0,2,0,4.1,0,6.1c-4.2,0-8.4,0-12.6,0c0-2,0-4.1,0-6.1C17.3,12.9,21.5,12.9,25.7,12.9z"/>
	<path d="M13.1,20.3c4.2,0,8.4,0,12.6,0c0,2,0,4.1,0,6.1c-4.2,0-8.4,0-12.6,0C13.1,24.4,13.1,22.4,13.1,20.3z"/>
	<g>
		<path d="M82.8,6.8c-1.3,0-2.3,1-2.3,2.3c0,1.3,1,2.3,2.3,2.3c1.3,0,2.3-1,2.3-2.3C85,7.8,84,6.8,82.8,6.8z M82.8,10.9
			c-1,0-1.9-0.8-1.9-1.9c0-1,0.9-1.9,1.9-1.9c1.1,0,1.9,0.8,1.9,1.9C84.7,10.1,83.8,10.9,82.8,10.9z"/>
		<path d="M83.2,9.2c0.4-0.3,0.5-0.5,0.4-0.9c-0.1-0.4-0.4-0.5-0.7-0.6c-0.2,0-0.4,0-0.6,0c0,0,0,0,0,0h-0.6c-0.1,0-0.1,0.1-0.1,0.1
			v0.2c0,0.1,0.1,0.1,0.1,0.1H82c0,0,0,0,0,0c0,0.6,0,1.1,0,1.7h-0.2c-0.1,0-0.1,0.1-0.1,0.1v0.2c0,0.1,0.1,0.1,0.1,0.1h0.9
			c0.1,0,0.1-0.1,0.1-0.1V10c0-0.1-0.1-0.1-0.1-0.1h-0.2c0,0,0,0,0,0c0-0.2,0-0.4,0-0.7c0.2,0.1,0.3,0.2,0.4,0.3
			c0.2,0.2,0.3,0.4,0.5,0.7c0.2,0.2,0.4,0.2,0.6,0.1c0,0,0.1-0.3,0-0.3C83.5,9.8,83.5,9.5,83.2,9.2z M83,8.8
			c-0.3,0.1-0.5,0.1-0.5-0.3c0-0.1,0-0.2,0-0.3c0.2,0,0.4,0,0.5,0.1c0.1,0,0.2,0.1,0.2,0.3C83.2,8.7,83.1,8.8,83,8.8z"/>
	</g>
</g>
</svg>
