<?xml version="1.0" encoding="utf-8"?>
<!-- Generator: Adobe Illustrator 21.1.0, SVG Export Plug-In . SVG Version: 6.00 Build 0)  -->
<svg version="1.1" id="Layer_1" xmlns="http://www.w3.org/2000/svg" xmlns:xlink="http://www.w3.org/1999/xlink" x="0px" y="0px"
	 viewBox="0 0 300 100" style="enable-background:new 0 0 300 100;" xml:space="preserve">
<style type="text/css">
	.st0{fill-rule:evenodd;clip-rule:evenodd;fill:#123F68;}
</style>
<g>
	<path class="st0" d="M0,96.9V29.1h24.7v10c1.6-2.3,3.5-4.3,5.7-6.1c2.7-2.1,5.6-3.7,8.7-4.8c2.4-0.8,4.8-1.2,7-1.2
		c5.8,0,10.6,1.2,14.3,3.5c3.5,2.2,6.1,5.1,7.8,8.9c2.8-4.1,6.3-7.2,10.1-9.3c3.9-2,8.3-3.1,13.2-3.1c7.2,0,12.8,1.5,16.8,4.5
		c4,3,6.6,7.3,7.9,12.7c0.8,3.5,1.3,7.6,1.3,12.5v40.1H90.7V62.3c0-2.8-0.2-5-0.4-6.7c-0.3-1.7-0.8-3-1.4-4
		c-1.3-2.2-3.8-3.3-7.2-3.3c-2.8,0-5,0.8-6.4,2.6c-1.3,1.3-2.1,3.5-2.6,6.6c-0.3,1.8-0.4,3.7-0.4,5.8v33.6H45.3V62.3
		c0-5.2-0.6-8.8-1.8-10.7c-1.3-2.2-3.8-3.3-7.3-3.3c-2.8,0-4.9,0.8-6.4,2.6c-1.3,1.4-2.2,3.6-2.5,6.6c-0.2,0.8-0.3,1.8-0.3,2.8
		c-0.1,0.9-0.1,1.9-0.1,3v33.6H0L0,96.9z M197.5,96.9h-27.8l-1.3-7.2c-3.7,3.3-7.5,5.8-11.8,7.2c-1.9,0.7-4,1.2-6.3,1.5
		c-2.3,0.3-4.8,0.5-7.5,0.5c-5.2,0-9.6-0.9-13.3-2.8c-4.1-2.1-7-4.9-8.9-8.6c-0.7-1.4-1.1-2.9-1.4-4.4c-0.3-1.4-0.6-3-0.6-4.7
		c0-2.1,0.3-3.9,0.7-5.8c0.5-1.8,1.2-3.4,2.1-5c1.6-2.5,3.9-4.6,7-6.4c1.8-1.1,3.9-1.9,6-2.6c8.9-1.9,17.5-3.3,25.7-4.4
		c1.1-0.3,2-0.6,2.9-1c0.8-0.3,1.4-0.6,1.8-0.8c1.3-1,2-2.2,2-3.6c0-1.7-0.7-2.9-2-3.9c-1.1-0.8-2.4-1.3-4.2-1.6h-2.6h-1.4l-1.5,0.1
		c-1.3,0.3-2.3,0.6-2.9,0.9c-2.1,1.1-3.3,2.9-3.5,5.5h-25.9c0-5.6,1.6-10,4.7-13.4c3.3-3.8,8.5-6.4,15.2-7.9
		c4.9-1,10.6-1.5,17.1-1.5c4.3,0,8.1,0.3,11.4,0.7c3.3,0.5,6.4,1.2,9.1,2.1c4.7,1.6,8,4,10,7.3c1.2,2,2.1,4.3,2.7,6.8
		c0.5,3.5,0.8,7.3,0.8,11.3v31.7c0,1.1,0.1,2,0.2,2.8c0.1,0.8,0.3,1.5,0.4,2c0.5,1.3,1.5,2.5,3.1,3.8V96.9L197.5,96.9z M155.1,83.6
		c4.4,0,7.6-1.7,9.7-4.9c1.4-2.3,2.1-6.3,2.1-11.7c-2.8,0.9-5.4,1.8-7.9,2.4c-2.3,0.8-4.8,1.3-7,1.8c-1.5,0.7-2.7,1.3-3.6,2
		c-1.3,1.3-1.8,2.9-1.8,4.8c0,1.6,0.8,3,2.3,4.1C150.5,83.1,152.6,83.6,155.1,83.6L155.1,83.6z M218.7,96.9l-23.4-67.8h26.9
		l11.8,42.8l11.7-42.8h25.9l-22.8,67.8H218.7L218.7,96.9z M300,96.9h-26.9V29.1H300V96.9L300,96.9z M273.1,20.3V1.1H300v19.2H273.1
		L273.1,20.3z"/>
</g>
</svg>
